<svg width="48" height="48" viewBox="0 0 48 48" fill="none" xmlns="http://www.w3.org/2000/svg">
<path d="M0 23.9941C0 10.7425 10.7425 0 23.9941 0C37.2457 0 47.9883 10.7425 47.9883 23.9941C47.9883 37.2457 37.2457 47.9883 23.9941 47.9883C10.7425 47.9883 0 37.2457 0 23.9941Z" fill="#DBEAFE"/>
<path d="M30.9797 32.9883V30.9896C30.9797 29.9294 30.5585 28.9127 29.8088 28.163C29.0592 27.4133 28.0424 26.9922 26.9823 26.9922H20.9862C19.926 26.9922 18.9092 27.4133 18.1596 28.163C17.4099 28.9127 16.9888 29.9294 16.9888 30.9896V32.9883" stroke="#155DFC" stroke-width="1.9987" stroke-linecap="round" stroke-linejoin="round"/>
<path d="M23.9842 22.9948C26.1919 22.9948 27.9816 21.2051 27.9816 18.9974C27.9816 16.7897 26.1919 15 23.9842 15C21.7765 15 19.9868 16.7897 19.9868 18.9974C19.9868 21.2051 21.7765 22.9948 23.9842 22.9948Z" stroke="#155DFC" stroke-width="1.9987" stroke-linecap="round" stroke-linejoin="round"/>
</svg>
