<svg width="48" height="48" viewBox="0 0 48 48" fill="none" xmlns="http://www.w3.org/2000/svg">
<path d="M0 23.9941C0 10.7425 10.7425 0 23.9941 0C37.2457 0 47.9883 10.7425 47.9883 23.9941C47.9883 37.2457 37.2457 47.9883 23.9941 47.9883C10.7425 47.9883 0 37.2457 0 23.9941Z" fill="#F3E8FF"/>
<path d="M31.9793 24.9933C31.9793 29.99 28.4816 32.4884 24.3243 33.9375C24.1066 34.0112 23.8701 34.0077 23.6548 33.9275C19.4875 32.4884 15.9897 29.99 15.9897 24.9933V17.9978C15.9897 17.7328 16.095 17.4786 16.2824 17.2912C16.4699 17.1038 16.7241 16.9985 16.9891 16.9985C18.9878 16.9985 21.4862 15.7993 23.225 14.2803C23.4367 14.0994 23.7061 14 23.9845 14C24.263 14 24.5323 14.0994 24.744 14.2803C26.4929 15.8093 28.9813 16.9985 30.98 16.9985C31.245 16.9985 31.4992 17.1038 31.6866 17.2912C31.874 17.4786 31.9793 17.7328 31.9793 17.9978V24.9933Z" stroke="#9810FA" stroke-width="1.9987" stroke-linecap="round" stroke-linejoin="round"/>
</svg>
