<svg width="24" height="24" viewBox="0 0 24 24" fill="none" xmlns="http://www.w3.org/2000/svg">
<path d="M12.5772 2.58367C12.2024 2.20881 11.6941 1.99816 11.1641 1.99805H3.99674C3.46666 1.99805 2.95828 2.20862 2.58345 2.58345C2.20862 2.95828 1.99805 3.46666 1.99805 3.99674V11.1641C1.99816 11.6941 2.20881 12.2024 2.58367 12.5772L11.282 21.2755C11.7362 21.7268 12.3505 21.9802 12.9909 21.9802C13.6312 21.9802 14.2456 21.7268 14.6998 21.2755L21.2755 14.6998C21.7268 14.2456 21.9802 13.6312 21.9802 12.9909C21.9802 12.3505 21.7268 11.7362 21.2755 11.282L12.5772 2.58367Z" stroke="#00A63E" stroke-width="1.9987" stroke-linecap="round" stroke-linejoin="round"/>
<path d="M7.49609 7.99609C7.77224 7.99609 7.99609 7.77224 7.99609 7.49609C7.99609 7.21995 7.77224 6.99609 7.49609 6.99609C7.21995 6.99609 6.99609 7.21995 6.99609 7.49609C6.99609 7.77224 7.21995 7.99609 7.49609 7.99609Z" fill="#00A63E" stroke="#00A63E" stroke-width="1.9987" stroke-linecap="round" stroke-linejoin="round"/>
</svg>
