<svg width="24" height="24" viewBox="0 0 24 24" fill="none" xmlns="http://www.w3.org/2000/svg">
<path d="M5.99609 1.99902L2.99805 5.99642V19.9873C2.99805 20.5174 3.20862 21.0258 3.58345 21.4006C3.95828 21.7754 4.46666 21.986 4.99674 21.986H18.9876C19.5177 21.986 20.0261 21.7754 20.4009 21.4006C20.7758 21.0258 20.9863 20.5174 20.9863 19.9873V5.99642L17.9883 1.99902H5.99609Z" stroke="#9810FA" stroke-width="1.9987" stroke-linecap="round" stroke-linejoin="round"/>
<path d="M2.99805 5.99609H20.9863" stroke="#9810FA" stroke-width="1.9987" stroke-linecap="round" stroke-linejoin="round"/>
<path d="M15.9894 9.99316C15.9894 11.0533 15.5683 12.0701 14.8186 12.8197C14.069 13.5694 13.0522 13.9906 11.992 13.9906C10.9318 13.9906 9.9151 13.5694 9.16544 12.8197C8.41578 12.0701 7.99463 11.0533 7.99463 9.99316" stroke="#9810FA" stroke-width="1.9987" stroke-linecap="round" stroke-linejoin="round"/>
</svg>
