<svg width="24" height="24" viewBox="0 0 24 24" fill="none" xmlns="http://www.w3.org/2000/svg">
<path d="M15.9894 20.9863V18.9876C15.9894 17.9275 15.5683 16.9107 14.8186 16.161C14.069 15.4114 13.0522 14.9902 11.992 14.9902H5.99593C4.93576 14.9902 3.919 15.4114 3.16935 16.161C2.41969 16.9107 1.99854 17.9275 1.99854 18.9876V20.9863" stroke="#00A63E" stroke-width="1.9987" stroke-linecap="round" stroke-linejoin="round"/>
<path d="M8.99398 10.9928C11.2017 10.9928 12.9914 9.20314 12.9914 6.99544C12.9914 4.78774 11.2017 2.99805 8.99398 2.99805C6.78628 2.99805 4.99658 4.78774 4.99658 6.99544C4.99658 9.20314 6.78628 10.9928 8.99398 10.9928Z" stroke="#00A63E" stroke-width="1.9987" stroke-linecap="round" stroke-linejoin="round"/>
<path d="M21.9858 20.9863V18.9876C21.9852 18.1019 21.6904 17.2415 21.1478 16.5415C20.6051 15.8415 19.8454 15.3415 18.9878 15.1201" stroke="#00A63E" stroke-width="1.9987" stroke-linecap="round" stroke-linejoin="round"/>
<path d="M15.9897 3.12793C16.8496 3.34809 17.6117 3.84816 18.156 4.54931C18.7002 5.25047 18.9956 6.11281 18.9956 7.00041C18.9956 7.888 18.7002 8.75035 18.156 9.4515C17.6117 10.1527 16.8496 10.6527 15.9897 10.8729" stroke="#00A63E" stroke-width="1.9987" stroke-linecap="round" stroke-linejoin="round"/>
</svg>
