<svg width="40" height="40" viewBox="0 0 40 40" fill="none" xmlns="http://www.w3.org/2000/svg">
<g opacity="0.8">
<path d="M23.3335 30V10C23.3335 9.11597 22.9823 8.26812 22.3572 7.643C21.7321 7.01788 20.8842 6.66669 20.0002 6.66669H6.66683C5.78277 6.66669 4.93493 7.01788 4.30981 7.643C3.68469 8.26812 3.3335 9.11597 3.3335 10V28.3334C3.3335 28.7754 3.50909 29.1993 3.82165 29.5119C4.13421 29.8244 4.55814 30 5.00016 30H8.3335" stroke="white" stroke-width="3.33333" stroke-linecap="round" stroke-linejoin="round"/>
<path d="M25 30H15" stroke="white" stroke-width="3.33333" stroke-linecap="round" stroke-linejoin="round"/>
<path d="M31.6668 30H35.0002C35.4422 30 35.8661 29.8244 36.1787 29.5118C36.4912 29.1993 36.6668 28.7753 36.6668 28.3333V22.25C36.6662 21.8718 36.5369 21.505 36.3002 21.21L30.5002 13.96C30.3443 13.7648 30.1465 13.6071 29.9215 13.4986C29.6965 13.3902 29.45 13.3337 29.2002 13.3333H23.3335" stroke="white" stroke-width="3.33333" stroke-linecap="round" stroke-linejoin="round"/>
<path d="M28.3333 33.3334C30.1743 33.3334 31.6667 31.841 31.6667 30C31.6667 28.1591 30.1743 26.6667 28.3333 26.6667C26.4924 26.6667 25 28.1591 25 30C25 31.841 26.4924 33.3334 28.3333 33.3334Z" stroke="white" stroke-width="3.33333" stroke-linecap="round" stroke-linejoin="round"/>
<path d="M11.6668 33.3334C13.5078 33.3334 15.0002 31.841 15.0002 30C15.0002 28.1591 13.5078 26.6667 11.6668 26.6667C9.82588 26.6667 8.3335 28.1591 8.3335 30C8.3335 31.841 9.82588 33.3334 11.6668 33.3334Z" stroke="white" stroke-width="3.33333" stroke-linecap="round" stroke-linejoin="round"/>
</g>
</svg>
