<svg width="20" height="20" viewBox="0 0 20 20" fill="none" xmlns="http://www.w3.org/2000/svg">
<path d="M11.6668 7.08333C11.6668 4.78215 9.80133 2.91667 7.50016 2.91667C5.19898 2.91667 3.3335 4.78215 3.3335 7.08333C3.3335 9.3845 5.19898 11.25 7.50016 11.25C9.80133 11.25 11.6668 9.3845 11.6668 7.08333Z" stroke="white" stroke-linecap="round" stroke-linejoin="round"/>
<path d="M13.3332 17.0833C13.3332 13.8617 10.7215 11.25 7.49984 11.25C4.27818 11.25 1.6665 13.8617 1.6665 17.0833" stroke="white" stroke-linecap="round" stroke-linejoin="round"/>
<path d="M16.2654 7.44438L16.7053 8.33155C16.7653 8.45508 16.9253 8.5735 17.0603 8.59617L17.8577 8.72975C18.3677 8.8155 18.4877 9.1885 18.1202 9.55642L17.5002 10.1815C17.3952 10.2873 17.3377 10.4915 17.3702 10.6377L17.5477 11.4114C17.6877 12.0239 17.3652 12.2608 16.8278 11.9408L16.0804 11.4947C15.9454 11.414 15.723 11.414 15.5855 11.4947L14.8381 11.9408C14.3032 12.2608 13.9782 12.0214 14.1182 11.4114L14.2957 10.6377C14.3281 10.4915 14.2707 10.2873 14.1657 10.1815L13.5457 9.55642C13.1807 9.1885 13.2982 8.8155 13.8082 8.72975L14.6056 8.59617C14.7381 8.5735 14.8981 8.45508 14.9581 8.33155L15.398 7.44438C15.638 6.96298 16.0279 6.96298 16.2654 7.44438Z" stroke="white" stroke-linecap="round" stroke-linejoin="round"/>
</svg>
