<svg width="41" height="40" viewBox="0 0 41 40" fill="none" xmlns="http://www.w3.org/2000/svg">
<path d="M9.77734 23.2916V18.2916L6.65234 20L1.65234 11.3333L12.6523 5H14.7773C15.2218 6.33334 15.7496 7.5 16.3607 8.5C16.9718 9.5 18.1107 10 19.7773 10C21.444 10 22.5828 9.5 23.194 8.5C23.8051 7.5 24.3328 6.33334 24.7773 5H26.9023L37.8607 11.375L32.9023 20L29.7773 18.2916V26.2916L27.1523 28.5834C26.9578 28.75 26.7357 28.8822 26.4857 28.98C26.2357 29.0777 25.9857 29.1261 25.7357 29.125C25.569 29.125 25.3746 29.0695 25.1523 28.9584C24.9301 28.8472 24.7078 28.7084 24.4857 28.5416L20.069 24.75C19.1801 23.9722 18.1801 23.4028 17.069 23.0416C15.9578 22.6805 14.8328 22.5 13.694 22.5C13.0273 22.5 12.3673 22.5627 11.714 22.6884C11.0607 22.8139 10.4151 23.015 9.77734 23.2916ZM7.52734 32.2916L5.36068 29.75L8.98568 26.6666C9.62457 26.1111 10.354 25.6873 11.174 25.395C11.994 25.1028 12.8478 24.9572 13.7357 24.9584C14.6235 24.9595 15.4707 25.1055 16.2773 25.3966C17.084 25.6878 17.8062 26.1111 18.444 26.6666L23.2773 30.7916C23.6107 31.0695 24.0068 31.285 24.4657 31.4384C24.9246 31.5916 25.3896 31.6677 25.8607 31.6666C26.3607 31.6666 26.8262 31.5972 27.2573 31.4584C27.6885 31.3195 28.0701 31.0973 28.4023 30.7916L32.0273 27.6666L34.194 30.25L30.569 33.3334C29.9301 33.8889 29.2078 34.3055 28.4023 34.5834C27.5968 34.8611 26.7496 35 25.8607 35C24.9718 35 24.1178 34.8611 23.299 34.5834C22.4801 34.3055 21.7507 33.8889 21.1107 33.3334L16.2773 29.2084C15.944 28.9305 15.5623 28.7155 15.1323 28.5634C14.7023 28.4111 14.2368 28.3345 13.7357 28.3334C13.2635 28.3334 12.7985 28.41 12.3407 28.5634C11.8829 28.7166 11.4868 28.9316 11.1523 29.2084L7.52734 32.2916Z" fill="url(#paint0_linear_222_3620)"/>
<defs>
<linearGradient id="paint0_linear_222_3620" x1="1.65234" y1="20" x2="37.8607" y2="20" gradientUnits="userSpaceOnUse">
<stop stop-color="#002F96"/>
<stop offset="1" stop-color="#6797FF"/>
</linearGradient>
</defs>
</svg>
