<svg width="20" height="20" viewBox="0 0 20 20" fill="none" xmlns="http://www.w3.org/2000/svg">
<path d="M10.4882 2.15501C10.1757 1.84242 9.75183 1.66677 9.30984 1.66667H3.33317C2.89114 1.66667 2.46722 1.84227 2.15466 2.15483C1.8421 2.46739 1.6665 2.89131 1.6665 3.33334V9.31001C1.6666 9.752 1.84225 10.1759 2.15484 10.4883L9.40817 17.7417C9.78693 18.118 10.2992 18.3293 10.8332 18.3293C11.3671 18.3293 11.8794 18.118 12.2582 17.7417L17.7415 12.2583C18.1179 11.8796 18.3291 11.3673 18.3291 10.8333C18.3291 10.2994 18.1179 9.7871 17.7415 9.40834L10.4882 2.15501Z" stroke="white" stroke-width="1.66667" stroke-linecap="round" stroke-linejoin="round"/>
<path d="M6.25016 6.66666C6.48028 6.66666 6.66683 6.48011 6.66683 6.24999C6.66683 6.01988 6.48028 5.83333 6.25016 5.83333C6.02004 5.83333 5.8335 6.01988 5.8335 6.24999C5.8335 6.48011 6.02004 6.66666 6.25016 6.66666Z" fill="white" stroke="white" stroke-width="1.66667" stroke-linecap="round" stroke-linejoin="round"/>
</svg>
