<svg width="20" height="20" viewBox="0 0 20 20" fill="none" xmlns="http://www.w3.org/2000/svg">
<path d="M5.8335 15V13.3333M10.0002 15V12.5M14.1668 15V10.8333M2.0835 10C2.0835 6.26806 2.0835 4.40209 3.24286 3.24271C4.40224 2.08334 6.26821 2.08334 10.0002 2.08334C13.7321 2.08334 15.5981 2.08334 16.7575 3.24271C17.9168 4.40209 17.9168 6.26806 17.9168 10C17.9168 13.7319 17.9168 15.5979 16.7575 16.7573C15.5981 17.9167 13.7321 17.9167 10.0002 17.9167C6.26821 17.9167 4.40224 17.9167 3.24286 16.7573C2.0835 15.5979 2.0835 13.7319 2.0835 10Z" stroke="white" stroke-linecap="round" stroke-linejoin="round"/>
<path d="M4.99365 9.57193C6.78957 9.63176 10.8619 9.36068 13.1782 5.68445M11.6604 5.2403L13.2233 4.98875C13.4138 4.9645 13.6935 5.11489 13.7622 5.29416L14.1755 6.65953" stroke="white" stroke-linecap="round" stroke-linejoin="round"/>
</svg>
