<svg width="20" height="20" viewBox="0 0 20 20" fill="none" xmlns="http://www.w3.org/2000/svg">
<path d="M17.7647 5.95114L17.3534 5.23731C17.0423 4.69745 16.8868 4.42752 16.6222 4.31988C16.3575 4.21225 16.0582 4.29718 15.4596 4.46705L14.4427 4.75346C14.0606 4.8416 13.6596 4.7916 13.3107 4.61231L13.0299 4.45033C12.7307 4.25867 12.5005 3.97609 12.3731 3.64393L12.0948 2.81278C11.9118 2.26276 11.8203 1.98776 11.6025 1.83046C11.3847 1.67316 11.0954 1.67316 10.5167 1.67316H9.58775C9.00916 1.67316 8.71983 1.67316 8.50199 1.83046C8.2842 1.98776 8.19271 2.26276 8.00974 2.81278L7.73144 3.64393C7.60404 3.97609 7.37387 4.25867 7.07464 4.45033L6.7939 4.61231C6.44494 4.7916 6.04399 4.8416 5.66181 4.75346L4.64495 4.46705C4.04634 4.29718 3.74704 4.21225 3.48239 4.31988C3.21774 4.42752 3.0622 4.69745 2.75112 5.23731L2.3398 5.95114C2.04821 6.45718 1.90241 6.71021 1.93071 6.97956C1.959 7.24891 2.15419 7.46596 2.54455 7.90008L3.40375 8.86065C3.61374 9.12648 3.76284 9.58981 3.76284 10.0064C3.76284 10.4231 3.6138 10.8863 3.40377 11.1522L2.54455 12.1128C2.15419 12.547 1.95901 12.764 1.93071 13.0334C1.90241 13.3027 2.04821 13.5557 2.3398 14.0617L2.75111 14.7756C3.06219 15.3154 3.21774 15.5854 3.48239 15.693C3.74704 15.8006 4.04634 15.7157 4.64497 15.5458L5.66178 15.2594C6.04402 15.1712 6.44505 15.2213 6.79405 15.4006L7.07474 15.5626C7.37392 15.7543 7.60403 16.0368 7.73141 16.369L8.00974 17.2002C8.19271 17.7502 8.2842 18.0252 8.50199 18.1826C8.71983 18.3398 9.00916 18.3398 9.58775 18.3398H10.5167C11.0954 18.3398 11.3847 18.3398 11.6025 18.1826C11.8203 18.0252 11.9118 17.7502 12.0948 17.2002L12.3732 16.369C12.5005 16.0368 12.7306 15.7543 13.0298 15.5626L13.3105 15.4006C13.6595 15.2213 14.0605 15.1712 14.4427 15.2594L15.4596 15.5458C16.0582 15.7157 16.3575 15.8006 16.6222 15.693C16.8868 15.5854 17.0423 15.3154 17.3534 14.7756L17.7647 14.0617C18.0563 13.5557 18.2021 13.3027 18.1738 13.0334C18.1455 12.764 17.9503 12.547 17.56 12.1128L16.7007 11.1522C16.4907 10.8863 16.3417 10.4231 16.3417 10.0064C16.3417 9.58981 16.4908 9.12648 16.7007 8.86065L17.56 7.90008C17.9503 7.46596 18.1455 7.24891 18.1738 6.97956C18.2021 6.71021 18.0563 6.45718 17.7647 5.95114Z" stroke="white" stroke-width="1.5" stroke-linecap="round"/>
<path d="M12.9329 9.99998C12.9329 11.6108 11.6271 12.9166 10.0163 12.9166C8.40542 12.9166 7.09961 11.6108 7.09961 9.99998C7.09961 8.38915 8.40542 7.08331 10.0163 7.08331C11.6271 7.08331 12.9329 8.38915 12.9329 9.99998Z" stroke="white" stroke-width="1.5"/>
</svg>
