<svg width="20" height="20" viewBox="0 0 20 20" fill="none" xmlns="http://www.w3.org/2000/svg">
<path d="M16.4546 10.8333C17.1137 9.8885 17.5002 8.73933 17.5002 7.5C17.5002 4.27834 14.8885 1.66666 11.6668 1.66666C8.44516 1.66666 5.8335 4.27833 5.8335 7.5C5.8335 8.39466 6.0349 9.24225 6.39485 10" stroke="white" stroke-linecap="round" stroke-linejoin="round"/>
<path d="M11.6667 5C10.7462 5 10 5.55964 10 6.25C10 6.94036 10.7462 7.5 11.6667 7.5C12.5872 7.5 13.3333 8.05964 13.3333 8.75C13.3333 9.44033 12.5872 10 11.6667 10M11.6667 5C12.3923 5 13.0097 5.34783 13.2385 5.83333M11.6667 5V4.16666M11.6667 10C10.941 10 10.3237 9.65216 10.0948 9.16666M11.6667 10V10.8333" stroke="white" stroke-linecap="round" stroke-linejoin="round"/>
<path d="M2.5 11.6667H4.49568C4.74081 11.6667 4.98257 11.7219 5.20181 11.828L6.90346 12.6513C7.1227 12.7574 7.36446 12.8126 7.60958 12.8126H8.47842C9.31875 12.8126 10 13.4718 10 14.285C10 14.3178 9.9775 14.3467 9.94483 14.3557L7.82739 14.9412C7.44756 15.0462 7.04083 15.0097 6.6875 14.8387L4.86843 13.9586M10 13.75L13.8273 12.5741C14.5058 12.3627 15.2392 12.6133 15.6642 13.2019C15.9716 13.6274 15.8464 14.2368 15.3987 14.4952L9.13575 18.1087C8.73742 18.3386 8.26745 18.3947 7.8293 18.2647L2.5 16.6832" stroke="white" stroke-linecap="round" stroke-linejoin="round"/>
</svg>
