<svg width="20" height="20" viewBox="0 0 20 20" fill="none" xmlns="http://www.w3.org/2000/svg">
<path d="M14.1665 9.83706C14.1665 9.54898 14.1665 9.40498 14.2098 9.27665C14.3358 8.90365 14.668 8.75898 15.0008 8.6074C15.3748 8.43698 15.5618 8.35181 15.7472 8.33681C15.9576 8.3198 16.1683 8.36515 16.3482 8.46606C16.5866 8.59981 16.7528 8.85406 16.9231 9.06081C17.7093 10.0156 18.1023 10.4931 18.2461 11.0196C18.3622 11.4445 18.3622 11.8888 18.2461 12.3136C18.0363 13.0816 17.3736 13.7253 16.883 14.3211C16.6321 14.6259 16.5066 14.7783 16.3482 14.8672C16.1683 14.9681 15.9576 15.0135 15.7472 14.9965C15.5618 14.9815 15.3748 14.8963 15.0008 14.7259C14.668 14.5743 14.3358 14.4296 14.2098 14.0566C14.1665 13.9283 14.1665 13.7843 14.1665 13.4962V9.83706Z" stroke="white"/>
<path d="M5.83317 9.83718C5.83317 9.47452 5.82299 9.14852 5.52976 8.89352C5.42311 8.80077 5.28171 8.73635 4.99893 8.60752C4.62485 8.43718 4.4378 8.35202 4.25247 8.33702C3.69643 8.29202 3.39727 8.67152 3.07661 9.06102C2.29046 10.0158 1.89739 10.4933 1.75355 11.0198C1.63749 11.4447 1.63749 11.889 1.75355 12.3138C1.96334 13.0818 2.6261 13.7254 3.11668 14.3213C3.42591 14.6969 3.72131 15.0396 4.25247 14.9967C4.4378 14.9817 4.62485 14.8964 4.99893 14.7261C5.28171 14.5973 5.42311 14.5328 5.52976 14.4401C5.82299 14.1851 5.83317 13.8592 5.83317 13.4964V9.83718Z" stroke="white"/>
<path d="M16.6668 8.75002V7.50002C16.6668 4.27836 13.6821 1.66669 10.0002 1.66669C6.31826 1.66669 3.3335 4.27836 3.3335 7.50002V8.75002" stroke="white"/>
<path d="M16.6667 14.5833C16.6667 18.3333 13.3333 18.3333 10 18.3333" stroke="white"/>
</svg>
