<svg width="48" height="48" viewBox="0 0 48 48" fill="none" xmlns="http://www.w3.org/2000/svg">
<path d="M0 23.9941C0 10.7425 10.7425 0 23.9941 0C37.2457 0 47.9883 10.7425 47.9883 23.9941C47.9883 37.2457 37.2457 47.9883 23.9941 47.9883C10.7425 47.9883 0 37.2457 0 23.9941Z" fill="#DCFCE7"/>
<path d="M33.7789 21.9955C34.2353 24.2354 33.9101 26.564 32.8574 28.593C31.8047 30.6221 30.0882 32.2289 27.9942 33.1456C25.9002 34.0622 23.5552 34.2333 21.3503 33.6303C19.1454 33.0273 17.2139 31.6866 15.8779 29.8318C14.5418 27.9771 13.882 25.7203 14.0085 23.438C14.1349 21.1556 15.04 18.9856 16.5728 17.2897C18.1056 15.5939 20.1734 14.4748 22.4314 14.1191C24.6894 13.7634 27.0011 14.1925 28.9811 15.3349" stroke="#00A63E" stroke-width="1.9987" stroke-linecap="round" stroke-linejoin="round"/>
<path d="M20.9863 22.9947L23.9844 25.9928L33.9779 15.9993" stroke="#00A63E" stroke-width="1.9987" stroke-linecap="round" stroke-linejoin="round"/>
</svg>
