<svg width="48" height="48" viewBox="0 0 48 48" fill="none" xmlns="http://www.w3.org/2000/svg">
<path d="M0 23.9941C0 10.7425 10.7425 0 23.9941 0C37.2457 0 47.9883 10.7425 47.9883 23.9941C47.9883 37.2457 37.2457 47.9883 23.9941 47.9883C10.7425 47.9883 0 37.2457 0 23.9941Z" fill="#DBEAFE"/>
<path d="M31.9788 21.9955C31.9788 26.9853 26.4434 32.1819 24.5847 33.7868C24.4115 33.9171 24.2007 33.9875 23.984 33.9875C23.7674 33.9875 23.5566 33.9171 23.3834 33.7868C21.5247 32.1819 15.9893 26.9853 15.9893 21.9955C15.9893 19.8752 16.8316 17.8417 18.3309 16.3424C19.8302 14.843 21.8637 14.0007 23.984 14.0007C26.1044 14.0007 28.1379 14.843 29.6372 16.3424C31.1365 17.8417 31.9788 19.8752 31.9788 21.9955Z" stroke="#155DFC" stroke-width="1.9987" stroke-linecap="round" stroke-linejoin="round"/>
<path d="M23.9844 24.9934C25.6402 24.9934 26.9824 23.6511 26.9824 21.9954C26.9824 20.3396 25.6402 18.9973 23.9844 18.9973C22.3286 18.9973 20.9863 20.3396 20.9863 21.9954C20.9863 23.6511 22.3286 24.9934 23.9844 24.9934Z" stroke="#155DFC" stroke-width="1.9987" stroke-linecap="round" stroke-linejoin="round"/>
</svg>
