<svg width="48" height="48" viewBox="0 0 48 48" fill="none" xmlns="http://www.w3.org/2000/svg">
<path d="M0 10C0 4.47715 4.47715 0 10 0H37.9688C43.4916 0 47.9688 4.47715 47.9688 10V37.9688C47.9688 43.4916 43.4916 47.9688 37.9688 47.9688H10C4.47715 47.9688 0 43.4916 0 37.9688V10Z" fill="#EFF6FF"/>
<path d="M17.9883 13.9909L14.9902 17.9883V31.9792C14.9902 32.5093 15.2008 33.0176 15.5756 33.3925C15.9505 33.7673 16.4588 33.9779 16.9889 33.9779H30.9798C31.5099 33.9779 32.0183 33.7673 32.3931 33.3925C32.7679 33.0176 32.9785 32.5093 32.9785 31.9792V17.9883L29.9805 13.9909H17.9883Z" stroke="#155DFC" stroke-width="1.9987" stroke-linecap="round" stroke-linejoin="round"/>
<path d="M14.9902 17.9883H32.9785" stroke="#155DFC" stroke-width="1.9987" stroke-linecap="round" stroke-linejoin="round"/>
<path d="M27.9816 21.9857C27.9816 23.0459 27.5605 24.0626 26.8108 24.8123C26.0611 25.5619 25.0444 25.9831 23.9842 25.9831C22.924 25.9831 21.9073 25.5619 21.1576 24.8123C20.408 24.0626 19.9868 23.0459 19.9868 21.9857" stroke="#155DFC" stroke-width="1.9987" stroke-linecap="round" stroke-linejoin="round"/>
</svg>
