<svg width="48" height="48" viewBox="0 0 48 48" fill="none" xmlns="http://www.w3.org/2000/svg">
<path d="M0 10C0 4.47715 4.47715 0 10 0H37.9688C43.4916 0 47.9688 4.47715 47.9688 10V37.9688C47.9688 43.4916 43.4916 47.9688 37.9688 47.9688H10C4.47715 47.9688 0 43.4916 0 37.9688V10Z" fill="#FFF7ED"/>
<path d="M22.985 33.708C23.2889 33.8835 23.6335 33.9758 23.9844 33.9758C24.3352 33.9758 24.6799 33.8835 24.9837 33.708L31.9792 29.7106C32.2827 29.5354 32.5348 29.2834 32.7102 28.98C32.8856 28.6765 32.9782 28.3323 32.9785 27.9818V19.987C32.9782 19.6365 32.8856 19.2922 32.7102 18.9888C32.5348 18.6853 32.2827 18.4333 31.9792 18.2581L24.9837 14.2607C24.6799 14.0853 24.3352 13.9929 23.9844 13.9929C23.6335 13.9929 23.2889 14.0853 22.985 14.2607L15.9896 18.2581C15.686 18.4333 15.4339 18.6853 15.2585 18.9888C15.0831 19.2922 14.9906 19.6365 14.9902 19.987V27.9818C14.9906 28.3323 15.0831 28.6765 15.2585 28.98C15.4339 29.2834 15.686 29.5354 15.9896 29.7106L22.985 33.708Z" stroke="#F54900" stroke-width="1.9987" stroke-linecap="round" stroke-linejoin="round"/>
<path d="M23.9844 33.9779V23.9844" stroke="#F54900" stroke-width="1.9987" stroke-linecap="round" stroke-linejoin="round"/>
<path d="M15.2798 18.9876L23.9841 23.9844L32.6884 18.9876" stroke="#F54900" stroke-width="1.9987" stroke-linecap="round" stroke-linejoin="round"/>
<path d="M19.4873 16.2594L28.4814 21.4061" stroke="#F54900" stroke-width="1.9987" stroke-linecap="round" stroke-linejoin="round"/>
</svg>
