<svg width="48" height="48" viewBox="0 0 48 48" fill="none" xmlns="http://www.w3.org/2000/svg">
<path d="M0 10C0 4.47715 4.47715 0 10 0H37.9688C43.4916 0 47.9688 4.47715 47.9688 10V37.9688C47.9688 43.4916 43.4916 47.9688 37.9688 47.9688H10C4.47715 47.9688 0 43.4916 0 37.9688V10Z" fill="#FAF5FF"/>
<path d="M23.9842 33.9779C29.5035 33.9779 33.9777 29.5036 33.9777 23.9844C33.9777 18.4651 29.5035 13.9909 23.9842 13.9909C18.465 13.9909 13.9907 18.4651 13.9907 23.9844C13.9907 29.5036 18.465 33.9779 23.9842 33.9779Z" stroke="#9810FA" stroke-width="1.9987" stroke-linecap="round" stroke-linejoin="round"/>
<path d="M23.9844 17.9883V23.9844L27.9818 25.9831" stroke="#9810FA" stroke-width="1.9987" stroke-linecap="round" stroke-linejoin="round"/>
</svg>
