<svg width="48" height="48" viewBox="0 0 48 48" fill="none" xmlns="http://www.w3.org/2000/svg">
<path d="M0 10C0 4.47715 4.47715 0 10 0H37.9688C43.4916 0 47.9688 4.47715 47.9688 10V37.9688C47.9688 43.4916 43.4916 47.9688 37.9688 47.9688H10C4.47715 47.9688 0 43.4916 0 37.9688V10Z" fill="#F0FDF4"/>
<path d="M33.7789 21.9857C34.2353 24.2255 33.9101 26.5541 32.8574 28.5832C31.8047 30.6122 30.0882 32.2191 27.9942 33.1357C25.9002 34.0524 23.5552 34.2235 21.3503 33.6205C19.1454 33.0175 17.2139 31.6768 15.8779 29.822C14.5418 27.9672 13.882 25.7105 14.0085 23.4281C14.1349 21.1458 15.04 18.9757 16.5728 17.2799C18.1056 15.5841 20.1734 14.465 22.4314 14.1093C24.6894 13.7535 27.0011 14.1826 28.9811 15.325" stroke="#00A63E" stroke-width="1.9987" stroke-linecap="round" stroke-linejoin="round"/>
<path d="M20.9863 22.985L23.9844 25.9831L33.9779 15.9896" stroke="#00A63E" stroke-width="1.9987" stroke-linecap="round" stroke-linejoin="round"/>
</svg>
